<svg width="184" height="234" viewBox="0 0 184 234" fill="none" xmlns="http://www.w3.org/2000/svg">
<mask id="mask0_0_1" style="mask-type:luminance" maskUnits="userSpaceOnUse" x="0" y="53" width="184" height="181">
<path d="M0 53.2915H183.24V233.532H0V53.2915Z" fill="white"/>
</mask>
<g mask="url(#mask0_0_1)">
<mask id="mask1_0_1" style="mask-type:luminance" maskUnits="userSpaceOnUse" x="0" y="53" width="184" height="181">
<path d="M91.62 53.2915C41.0189 53.2915 0 93.6388 0 143.412C0 193.184 41.0189 233.532 91.62 233.532C142.217 233.532 183.24 193.184 183.24 143.412C183.24 93.6388 142.217 53.2915 91.62 53.2915Z" fill="white"/>
</mask>
<g mask="url(#mask1_0_1)">
<path d="M0 53.2915H183.24V233.532H0V53.2915Z" fill="#1A202C"/>
</g>
</g>
<mask id="mask2_0_1" style="mask-type:luminance" maskUnits="userSpaceOnUse" x="31" y="0" width="132" height="225">
<path d="M31.7866 0H162.217V224.15H31.7866V0Z" fill="white"/>
</mask>
<g mask="url(#mask2_0_1)">
<path fill-rule="evenodd" clip-rule="evenodd" d="M69.163 209.547C52.2892 204.25 39.9546 188.549 37.8036 169.638C35.6526 150.73 44.0958 132.246 59.2716 122.649C47.2419 134.276 41.2419 151.566 43.2151 168.916C45.1883 186.257 54.8849 201.448 69.163 209.547ZM69.7558 66.4374C81.1674 82.8734 73.3974 102.153 66.9866 114.5C80.1299 101.661 83.0516 72.0968 69.7558 66.4374ZM90.7242 217.701C84.6395 211.412 82.4334 201.889 85.0502 193.226C87.6713 184.562 94.6495 178.31 102.983 177.153C95.5768 179.739 89.7588 186.018 87.3325 194.039C84.9063 202.059 86.1681 210.856 90.7242 217.701ZM104.96 133.376C114.691 126.857 126.576 125.341 137.429 129.232C148.286 133.123 157 142.025 161.23 153.546C150.699 133.89 131.941 127.17 104.96 133.376ZM39.4253 95.786C39.0485 103.485 42.6815 110.766 48.8298 114.629C45.002 113.981 41.6738 111.432 39.8318 107.734C37.9857 104.041 37.8375 99.6171 39.4253 95.786ZM73.3889 180.846C67.9774 157.253 83.8053 139.816 94.2218 120.936C96.8344 116.195 98.8711 111.441 100.26 106.792C101.196 116.48 99.7561 126.361 95.9706 135.388C107.797 122.865 112.747 104.56 109.029 87.0903C105.316 69.6162 93.4681 55.5184 77.7757 49.8866C89.039 49.7994 99.629 44.0252 106.412 34.2684C107.839 32.215 109.063 30.0376 110.079 27.7638C107.632 28.5723 105.129 29.197 102.593 29.6334C114.17 22.8119 115.863 13.6476 112.387 0.105652C110.075 7.64837 102.953 15.5494 91.0249 23.8133C95.0475 17.2812 96.864 9.94517 96.466 1.82366C93.9254 10.6388 86.8075 16.6105 75.1038 19.7388C77.4666 15.4851 78.7199 10.6572 78.8639 5.25509C76.8907 12.3063 68.3543 21.2822 53.2504 32.1783C46.1452 37.3966 43.2786 44.8383 44.6505 54.494L31.7866 61.3615C44.3329 64.0809 48.4064 70.4844 44.0027 80.5674C42.1057 84.7384 39.4338 89.5984 35.9913 95.1613C32.426 101.693 33.6201 110.049 38.8325 115.107C44.0492 120.169 51.8362 120.527 57.4255 115.961C69.0445 106.462 58.1623 86.0568 57.8489 70.0572C57.8997 67.0714 59.2886 64.2968 61.5751 62.6293C72.9443 54.3333 101.31 81.3437 68.9852 118.603C62.9767 125.438 57.3577 133.959 52.1368 144.161C36.7916 176.432 67.1094 206.432 88.8315 223.828C88.1667 222.85 87.5188 221.867 86.8879 220.898C54.9611 171.461 147.324 151.217 136.26 184.672C145.766 180.313 151.483 170.722 150.615 160.593C156.399 177.497 147.32 195.794 130.061 202.036C147.922 200.525 161.709 186.216 161.984 168.898C162.263 151.58 148.942 136.867 131.141 134.823C103.033 130.555 71.5724 145.264 73.3889 180.846Z" fill="#C80000"/>
</g>
</svg>
